<?xml version="1.0" encoding="UTF-8" standalone="no"?>
<svg
   viewBox="0 0 512 512"
   version="1.1"
   id="svg3"
   xmlns="http://www.w3.org/2000/svg"
   xmlns:svg="http://www.w3.org/2000/svg">
  <defs
     id="defs1">
    <clipPath
       id="shape">
      <rect
         width="512"
         height="512"
         rx="64"
         ry="64"
         id="rect1" />
    </clipPath>
  </defs>
  <rect
     width="512"
     height="512"
     rx="64"
     ry="64"
     fill="#0D1B2A"
     id="rect2" />
  <rect
     y="484"
     width="512"
     height="28"
     fill="#FFB700"
     clip-path="url(#shape)"
     id="rect3" />
  <path
     d="m 199.99902,336.69615 -64.23828,-82.13867 -22.08984,16.88477 v 65.2539 H 76.219727 V 157.8192 H 113.6709 v 81.12305 l 80.61523,-81.12305 h 43.67188 l -76.42578,75.66406 82.64648,103.21289 z m 202.51953,0 V 228.27818 q 0,-3.68164 0,-7.36328 0.12696,-3.68164 1.26954,-31.61133 -9.01368,34.15039 -13.33008,47.60743 l -32.2461,99.78515 H 331.55176 L 299.30566,236.911 285.72168,189.30357 q 1.52344,29.45313 1.52344,38.97461 V 336.69615 H 253.9834 V 157.8192 h 50.14648 l 31.99219,100.03906 2.79297,9.64844 6.09375,23.99414 7.99805,-28.69141 32.88086,-104.99023 h 49.89257 v 178.87695 z"
     id="text3"
     style="font-weight:900;font-size:260px;font-family:'Arial Black', Arial, Helvetica, sans-serif;letter-spacing:-10;dominant-baseline:central;text-anchor:middle;fill:#00d9ff"
     aria-label="KM" />
</svg>
