<?xml version="1.0" encoding="UTF-8" standalone="no"?>
<svg
   version="1.1"
   viewBox="0 0 751.31763 405.95859"
   id="svg5"
   sodipodi:docname="kam-logo.svg"
   width="751.31763"
   height="405.95859"
   inkscape:version="1.4.2 (ebf0e940d0, 2025-05-08)"
   xmlns:inkscape="http://www.inkscape.org/namespaces/inkscape"
   xmlns:sodipodi="http://sodipodi.sourceforge.net/DTD/sodipodi-0.dtd"
   xmlns="http://www.w3.org/2000/svg"
   xmlns:svg="http://www.w3.org/2000/svg">
  <defs
     id="defs5" />
  <sodipodi:namedview
     id="namedview5"
     pagecolor="#ffffff"
     bordercolor="#000000"
     borderopacity="0.25"
     inkscape:showpageshadow="2"
     inkscape:pageopacity="0.0"
     inkscape:pagecheckerboard="0"
     inkscape:deskcolor="#d1d1d1"
     inkscape:zoom="0.22468588"
     inkscape:cx="522.9523"
     inkscape:cy="189.15296"
     inkscape:window-width="3440"
     inkscape:window-height="1440"
     inkscape:window-x="0"
     inkscape:window-y="0"
     inkscape:window-maximized="1"
     inkscape:current-layer="g5" />
  <g
     transform="translate(-154.722,-370.0336)"
     id="g5">
    <path
       d="M 22.876447,-52.627953 H 5.6850406 V 9.53125e-4 H 22.876447 c 16.886719,0 27.9375,-9.925781225 27.9375,-26.121094125 0,-16.289062 -11.050781,-26.507812 -27.9375,-26.507812 z M 14.310041,-7.0420156 V -45.584984 h 8.566406 c 12.410156,0 19.078125,7.417968 19.078125,19.464843 0,11.964844 -6.667969,19.0781254 -19.078125,19.0781254 z M 75.807111,-9.9248281 64.064923,-41.729516 H 54.455548 L 70.885236,-0.67873437 62.400861,19.618141 h 8.941406 l 25.59375,-61.347657 H 87.994611 Z M 133.0532,9.53125e-4 h 8.56641 V -24.608422 c 0,-11.660156 -7.34766,-17.800781 -17.12109,-17.800781 -4.99219,0 -9.6211,2.050781 -12.42188,5.460937 v -4.78125 h -8.625 V 9.53125e-4 h 8.625 V -23.319359 c 0,-7.652344 4.17188,-11.589844 10.53516,-11.589844 6.28125,0 10.4414,3.9375 10.4414,11.589844 z M 149.7202,-21.045922 c 0,12.8671876 8.70703,21.72656263 19.53515,21.72656263 6.97266,0 11.96485,-3.32812503 14.61328,-6.89062503 V 9.53125e-4 h 8.71875 V -41.729516 h -8.71875 v 6.058594 c -2.5664,-3.398437 -7.41796,-6.738281 -14.46093,-6.738281 -10.98047,0 -19.6875,8.484375 -19.6875,21.363281 z m 34.14843,0.140625 c 0,9.011719 -6.1289,14.0859376 -12.64453,14.0859376 -6.43359,0 -12.64453,-5.2148436 -12.64453,-14.2265626 0,-9.011719 6.21094,-13.863281 12.64453,-13.863281 6.51563,0 12.64453,5.074219 12.64453,14.003906 z m 79.2129,20.906250125 h 8.5664 V -24.608422 c 0,-11.660156 -7.42969,-17.800781 -17.1914,-17.800781 -6.0586,0 -11.96485,3.1875 -14.54297,8.261719 -2.8711,-5.460938 -8.40235,-8.261719 -14.98828,-8.261719 -5.00391,0 -9.55079,2.050781 -12.35157,5.460937 v -4.78125 h -8.625 V 9.53125e-4 h 8.625 V -23.319359 c 0,-7.652344 4.17188,-11.589844 10.53516,-11.589844 6.28125,0 10.44141,3.9375 10.44141,11.589844 V 9.53125e-4 h 8.5664 V -23.319359 c 0,-7.652344 4.16016,-11.589844 10.52344,-11.589844 6.28125,0 10.44141,3.9375 10.44141,11.589844 z m 19.55273,0 h 8.625 V -41.729516 h -8.625 z M 287.01707,-47.249047 c 3.03516,0 5.46094,-2.425781 5.46094,-5.53125 0,-3.105469 -2.42578,-5.53125 -5.46094,-5.53125 -3.09375,0 -5.51953,2.425781 -5.51953,5.53125 0,3.105469 2.42578,5.53125 5.51953,5.53125 z m 12.72656,26.34375 c 0,13.1015626 8.48438,21.58593763 20.44922,21.58593763 10.21875,0 16.88672,-5.67187503 19.23047,-13.85156263 h -9.3164 c -1.58204,4.3125001 -4.76954,6.5859376 -9.91407,6.5859376 -6.97265,0 -11.58984,-5.1562496 -11.58984,-14.3203126 0,-9.082031 4.61719,-14.226562 11.58984,-14.226562 5.14453,0 8.48438,2.566406 9.91407,6.585937 h 9.3164 c -2.34375,-8.789062 -9.01172,-13.863281 -19.23047,-13.863281 -11.96484,0 -20.44922,8.484375 -20.44922,21.503906 z m 79.44727,9.246094 c -0.45703,-15.070313 -24.01172,-10.371094 -24.01172,-18.785156 0,-2.800782 2.42578,-4.6875 7.04297,-4.6875 4.69922,0 7.5,2.496093 7.80469,6.128906 h 8.625 c -0.44531,-8.332031 -6.65625,-13.40625 -16.125,-13.40625 -9.84375,0 -16.05469,5.378906 -16.05469,12.046875 0,15.292969 24.23438,10.59375 24.23438,18.773437 0,2.8828129 -2.64844,5.0039066 -7.65235,5.0039066 -4.76953,0 -8.02734,-2.8007812 -8.33203,-6.2109376 h -8.92969 c 0.375,7.5703126 7.41797,13.47656263 17.41407,13.47656263 9.84375,0 15.98437,-5.29687503 15.98437,-12.33984363 z m 0,0"
       style="fill:#ffffff;fill-opacity:1;fill-rule:nonzero;stroke:none"
       id="path2"
       transform="matrix(1.3333333,0,0,1.3333333,147.16213,749.83467)" />
    <path
       d="m 0,0 h 31.702 v -75.899 c 0.546,0.436 0.858,0.659 1.14,0.914 23.079,20.887 46.154,41.779 69.233,62.667 6.335,5.733 12.671,11.466 19.032,17.169 0.684,0.613 0.76,1.087 0.337,1.895 -3.496,6.678 -6.304,13.62 -7.654,21.071 -1.664,9.183 -1.021,18.05 4.002,26.214 4.348,7.066 10.794,11.627 18.223,14.954 7.52,3.369 15.468,5.178 23.601,6.214 15.664,1.995 31.311,1.339 46.943,-0.467 26.163,-3.023 51.613,-9.251 76.685,-17.129 30.446,-9.567 59.894,-21.624 88.577,-35.58 19.128,-9.308 37.811,-19.429 55.991,-30.473 0.479,-0.291 0.951,-0.593 1.609,-1.004 -4.084,-5.609 -8.126,-11.161 -12.232,-16.799 -2.183,1.293 -4.309,2.563 -6.445,3.817 -37.525,22.032 -76.711,40.511 -117.796,54.918 -22.077,7.742 -44.533,14.124 -67.552,18.408 -13.957,2.598 -28.005,4.428 -42.232,4.674 -11.079,0.191 -22.093,-0.291 -32.772,-3.504 -3.468,-1.044 -6.847,-2.591 -10.022,-4.349 -5.027,-2.783 -7.019,-7.315 -6.523,-13.013 0.404,-4.639 1.807,-8.989 3.637,-13.225 3.18,-7.361 7.36,-14.15 12.188,-20.521 1.705,-2.249 3.21,-4.652 5.114,-6.762 2.011,-2.23 3.853,-4.612 5.836,-6.869 1.951,-2.221 3.956,-4.399 5.994,-6.541 2.07,-2.177 4.19,-4.306 6.323,-6.421 2.1,-2.083 4.221,-4.147 6.377,-6.174 2.188,-2.058 4.41,-4.082 6.653,-6.081 2.208,-1.968 4.441,-3.91 6.698,-5.822 22.487,-19.054 46.725,-35.625 72.045,-50.658 0.354,-0.21 0.727,-0.385 1.483,-0.783 -9.126,20.899 -18.096,41.441 -27.205,62.302 -3.736,-8.539 -7.361,-16.823 -11.131,-25.439 -7.335,5.586 -14.554,11.084 -21.82,16.618 1.846,4.11 3.61,8.034 5.373,11.96 3.975,8.851 7.966,17.694 11.897,26.565 0.41,0.926 0.891,1.206 1.873,1.202 9.212,-0.037 18.425,-0.041 27.637,0.006 1.023,0.005 1.462,-0.36 1.856,-1.24 20.31,-45.293 40.642,-90.576 60.972,-135.86 1.008,-2.245 2.018,-4.489 3.201,-7.12 -3.068,1.43 -5.775,2.668 -8.461,3.949 -29.608,14.133 -58.196,30.07 -85.451,48.35 -21.094,14.147 -41.255,29.492 -59.836,46.844 -10.414,9.726 -20.225,20.013 -28.99,31.267 -0.223,0.287 -0.468,0.556 -0.773,0.917 -18.5,-17.183 -36.925,-34.298 -55.461,-51.515 25.224,-27.3 50.382,-54.528 75.683,-81.911 -0.469,-0.073 -0.753,-0.156 -1.038,-0.156 -11.61,-0.007 -23.219,-0.018 -34.829,0.028 -0.606,0.002 -1.364,0.349 -1.792,0.788 -7.535,7.735 -15.032,15.508 -22.534,23.277 -11.448,11.855 -22.893,23.713 -34.344,35.567 -0.746,0.772 -1.526,1.512 -2.396,2.37 -2.827,-2.53 -5.651,-5.056 -8.472,-7.585 -5.804,-5.201 -11.594,-10.419 -17.428,-15.587 -0.746,-0.66 -1.018,-1.321 -1.016,-2.291 0.029,-11.551 0.019,-23.101 0.019,-34.652 v -1.968 H 0 Z"
       style="fill:#ff0000;fill-opacity:1;fill-rule:nonzero;stroke:none"
       id="path3"
       transform="matrix(1.3333333,0,0,-1.3333333,154.722,471.9288)" />
    <path
       d="m 0,0 c -0.493,-2.228 -0.836,-4.503 -1.506,-6.676 -2.893,-9.379 -9.271,-15.795 -17.711,-20.378 -7.474,-4.058 -15.561,-6.248 -23.899,-7.575 -13.722,-2.184 -27.505,-2.089 -41.309,-0.946 -28.355,2.346 -55.859,8.815 -82.974,17.137 -24.882,7.636 -49.08,17.075 -72.816,27.723 -0.995,0.447 -1.37,0.948 -1.369,2.077 0.033,47.565 0.028,95.129 0.028,142.693 0,0.508 0,1.016 0,1.696 h 1.789 c 9.494,0 18.989,-0.027 28.483,0.033 1.234,0.008 1.929,-0.399 2.633,-1.367 14.619,-20.135 29.272,-40.244 43.92,-60.357 0.273,-0.375 0.563,-0.737 0.931,-1.219 0.338,0.412 0.636,0.742 0.896,1.099 14.732,20.221 29.463,40.445 44.186,60.673 0.479,0.659 0.901,1.169 1.883,1.165 9.871,-0.044 19.741,-0.027 29.612,-0.03 0.279,0 0.559,-0.033 0.95,-0.058 V 9.16 h -27.58 v 106.099 c -0.538,-0.627 -0.839,-0.939 -1.097,-1.284 -15.255,-20.312 -30.515,-40.621 -45.735,-60.96 -0.706,-0.943 -1.461,-1.125 -2.555,-1.279 -2.92,-0.41 -4.581,0.815 -6.28,3.163 -14.254,19.699 -28.665,39.286 -43.03,58.906 -0.323,0.441 -0.667,0.867 -1.178,1.528 -0.043,-0.659 -0.092,-1.052 -0.092,-1.445 -0.003,-30.661 0.003,-61.322 -0.029,-91.983 -0.001,-1.074 0.357,-1.537 1.324,-1.934 28.508,-11.721 57.615,-21.586 87.749,-28.264 17.171,-3.806 34.496,-6.576 52.107,-7.164 11.106,-0.372 22.169,0.055 33.022,2.782 4.063,1.021 8.004,2.384 11.615,4.557 6.423,3.864 8.389,8.727 6.755,16.73 -1.63,7.983 -5.301,15.095 -9.549,21.935 -6.843,11.02 -15.059,20.979 -24.196,30.139 -7.058,7.076 -14.501,13.768 -21.748,20.656 -0.394,0.374 -0.796,0.985 -0.798,1.488 -0.047,8.452 -0.031,16.903 -0.026,25.355 10e-4,0.132 0.05,0.263 0.118,0.604 0.473,-0.359 0.866,-0.646 1.246,-0.949 10.918,-8.698 21.438,-17.85 31.33,-27.7 C -32.12,67.416 -20.295,53.906 -11.152,38.256 -6.323,29.992 -2.427,21.342 -0.718,11.838 -0.481,10.521 -0.239,9.205 0,7.888 0,5.259 0,2.629 0,0"
       style="fill:#ff0000;fill-opacity:1;fill-rule:nonzero;stroke:none"
       id="path4"
       transform="matrix(1.3333333,0,0,-1.3333333,906.0396,681.9136)" />
    <path
       d="M 0,0 C 10.123,22.747 20.153,45.284 30.26,67.996 49.25,53.332 69.052,40.125 89.46,27.61 H 87.994 C 73.282,27.61 58.571,27.596 43.86,27.637 42.707,27.641 42.135,27.293 41.663,26.24 37.92,17.902 34.098,9.599 30.353,1.261 29.924,0.307 29.43,-0.031 28.375,-0.026 19.445,0.019 10.515,0 1.584,0 Z"
       style="fill:#ff0000;fill-opacity:1;fill-rule:nonzero;stroke:none"
       transform="matrix(1.3333333,0,0,-1.3333333,365.89493,669.8304)"
       id="path5" />
  </g>
</svg>
