<svg version="1.2" xmlns="http://www.w3.org/2000/svg" viewBox="0 0 1553 1268" width="1553" height="1268">
	<title>mKdx6PgL_400x400-svg</title>
	<style>
		.s0 { fill: #003e69 } 
	</style>
	<g id="#fdfefdff">
		<path id="Layer" fill-rule="evenodd" class="s0" d="m1153.9 0.3c-4.1 20.9-10.9 41.2-16.4 61.7-39.2 139.9-77.5 280-114.7 420.4 176.5 0.3 353.1-0.5 529.7 0.4-204.7 96.4-408.5 194.9-609.9 297.9-39.8 149.9-82.2 299.1-124.3 448.4 25.7-143.2 54.3-285.8 81.3-428.7-136.9 69.2-272.7 140.2-408.7 210.9-163.6 85.4-327.6 170.2-490.8 256.4l-0.1-4.2v-7.3c303.4-171.9 607.4-342.8 910.9-514.6 12.3-65.2 25.1-130.3 37.1-195.6-82.8-1.2-165.5-4.4-248.4-5.8-97.3 87.6-193.2 177.1-291.5 263.7 80.2-89.3 161-178.1 243.8-265-179.3-4.8-358.7-8.8-538-13.7-37.9-0.2-76.1-3.4-113.9-1.4v-40.2c234.8 0 469.5-1 704.2-1.1 149.6-161.1 299.7-321.6 449.7-482.2zm-380.2 472.4c-3.3 2.9-6.1 6.4-8.9 9.8 65.3-0.2 130.5 0 195.8-0.1 13.6-72.2 27.6-144.3 41.2-216.5-76.5 68.5-151.9 138.1-228.1 206.8zm230.2 75.2c-14.6 55.6-29.8 111.1-44.9 166.6 95.3-53.3 189.9-107.9 285.6-160.5-80.2-2.6-160.5-4.3-240.7-6.1z"/>
	</g>
</svg>