<?xml version="1.0" encoding="UTF-8"?>
<svg id="Layer_2" data-name="Layer 2" xmlns="http://www.w3.org/2000/svg" viewBox="0 0 252.27 254.83">
  <defs>
    <style>
      .cls-1 {
        fill: #faaa00;
      }

      .cls-1, .cls-2, .cls-3 {
        stroke-width: 0px;
      }

      .cls-2 {
        fill: #182340;
      }

      .cls-3 {
        fill: #fff;
      }
    </style>
  </defs>
  <g id="CSM_Outline" data-name="CSM Outline">
    <path class="cls-3" d="M126.13,254.83l-16.76-10.73-19.11,5.57-13.1-15-19.92-.06-8.31-18.09-10.42-3.1-21.15,3.88,4.21-23.25-16.86-20.19,6.61-1.22,1.68-12-13-15.09,8.24-18.13L.04,109.29l12.97-15.09-2.8-19.72,16.73-10.82,2.9-19.7,19.09-5.65,8.32-18.08,19.9-.07,13.07-15.02,19.13,5.56L126.14,0l16.76,10.73,19.11-5.57,13.1,15,19.92.06,8.31,18.1,19.08,5.67,2.89,19.69,16.72,10.8-2.76,19.72,13.01,15.09-8.24,18.13,8.2,18.13-12.97,15.08,1.7,12.02,6.6,1.22-16.85,20.19,4.21,23.25-21.15-3.88-10.44,3.09-8.31,18.08-19.9.07-13.07,15.03-19.13-5.56-16.79,10.71ZM110.14,238.66l15.99,10.23,16.01-10.21,18.23,5.3,12.46-14.32,18.98-.07,7.93-17.24,13.76-4.07,15.21,2.79-3.35-18.43,12.86-15.42-1.71-.31-2.53-17.83,12.37-14.39-7.82-17.29,7.86-17.28-12.4-14.38,2.63-18.8-15.95-10.29-2.76-18.78-18.19-5.41-7.92-17.25-18.99-.05-12.48-14.3-18.22,5.31-15.99-10.23-16.01,10.21-18.23-5.3-12.46,14.32-18.98.07-7.93,17.24-18.2,5.39-2.77,18.78-15.95,10.31,2.67,18.8-12.37,14.39,7.82,17.29-7.85,17.29,12.4,14.38-2.5,17.82-1.74.32,12.86,15.42-3.35,18.43,15.23-2.79,13.75,4.09,7.92,17.25,18.99.06,12.49,14.3,18.22-5.31Z"/>
    <polygon class="cls-1" points="241.28 127.41 249.33 109.7 236.63 94.96 239.33 75.7 222.99 65.16 220.17 45.93 201.54 40.39 193.42 22.71 173.97 22.65 161.18 8 142.51 13.44 126.14 2.97 109.74 13.42 91.06 8 78.29 22.67 58.85 22.74 50.73 40.4 32.09 45.91 29.25 65.15 12.91 75.72 15.65 94.97 2.97 109.71 10.98 127.42 2.94 145.13 15.64 159.86 12.94 179.12 29.27 189.67 32.09 208.9 50.73 214.44 58.84 232.11 78.3 232.17 91.09 246.82 109.75 241.38 126.13 251.86 142.53 241.4 161.21 246.83 173.97 232.16 193.41 232.09 201.54 214.43 220.18 208.91 223.02 189.67 239.35 179.11 236.62 159.85 249.3 145.12 241.28 127.41"/>
    <g>
      <polygon class="cls-2" points="240.49 178.41 228.03 193.34 231.25 211.08 231.81 214.18 228.71 213.61 181.53 204.96 179.17 204.53 179.82 202.22 189.54 167.77 190.08 165.85 192.04 166.21 239.21 174.86 242.89 175.54 240.49 178.41"/>
      <polygon class="cls-2" points="73.09 204.53 70.73 204.96 23.55 213.61 20.45 214.18 21.01 211.08 24.23 193.34 11.77 178.41 9.37 175.54 13.05 174.86 60.22 166.21 62.18 165.85 62.72 167.77 72.44 202.22 73.09 204.53"/>
    </g>
    <path class="cls-1" d="M126.13,230.08c-56.61,0-102.67-46.06-102.67-102.67S69.52,24.75,126.13,24.75s102.67,46.06,102.67,102.67-46.06,102.67-102.67,102.67ZM126.13,29.75c-53.85,0-97.67,43.81-97.67,97.67s43.81,97.67,97.67,97.67,97.67-43.81,97.67-97.67S179.99,29.75,126.13,29.75Z"/>
    <circle class="cls-3" cx="126.13" cy="127.41" r="100.17"/>
    <path class="cls-2" d="M30.72,200.9c62.94-13.03,127.89-13.03,190.83,0,2.79-13.46,5.58-26.93,8.36-40.39-68.46-14.18-139.1-14.18-207.56,0,2.79,13.46,5.58,26.93,8.36,40.39Z"/>
    <g>
      <path class="cls-3" d="M43.29,180.25l1.88-1.79c.9,1.11,2.34,1.73,4.16,1.46,1.49-.23,2.33-.78,2.19-1.66-.12-.78-.65-1-1.92-1.02l-2.36.02c-2.35-.03-3.73-.89-4.03-2.85-.32-2.12,1.36-3.71,4.54-4.19,2.36-.36,4.37.09,5.65,1.47l-1.62,1.83c-.85-1-2.23-1.46-3.88-1.21-1.36.21-2.09.75-1.97,1.5.11.71.62.97,1.95.98h2.3c2.51.01,3.82.77,4.13,2.76.35,2.28-1.36,4.01-4.78,4.53-2.8.43-5.05-.32-6.24-1.83Z"/>
      <path class="cls-3" d="M56.52,175c-.44-3.57,1.77-6.3,5.63-6.78,3.21-.4,5.57.92,6.37,3.4l-2.89.89c-.48-1.49-1.61-2.22-3.25-2.02-2.06.26-3.14,1.83-2.86,4.1.28,2.22,1.73,3.51,3.82,3.25,1.59-.2,2.52-1.15,2.67-2.67l3,.27c-.39,2.55-2.29,4.3-5.45,4.69-3.97.49-6.6-1.55-7.04-5.14Z"/>
      <path class="cls-3" d="M71.57,167.44l6.12-.59c3.19-.3,4.5,1.18,4.69,3.1.13,1.34-.43,2.73-2.05,3.43l3.15,4.33-3.2.31-2.81-3.98-2.33.22.4,4.21-2.88.28-1.08-11.31ZM77.56,172.11c1.4-.13,1.87-.9,1.79-1.83-.09-.89-.68-1.51-2.09-1.38l-2.61.25.31,3.2,2.61-.25Z"/>
      <path class="cls-3" d="M88.26,165.97l.46,6.7c.11,1.56,1.14,2.57,2.86,2.45,1.68-.11,2.59-1.25,2.49-2.81l-.46-6.7,2.9-.2.47,6.91c.19,2.86-1.71,4.88-5.25,5.12-3.56.24-5.71-1.5-5.91-4.38l-.47-6.89,2.9-.2Z"/>
      <path class="cls-3" d="M100.73,165.17l4.16-.15,2.69,6.84c.18.51.3.92.37,1.32h.03c.05-.4.15-.82.29-1.36l2.15-6.99,4.24-.15.4,11.35-2.67.09-.27-7.53c-.02-.5,0-1.06.04-1.55h-.05c-.04.32-.21.97-.37,1.41l-2.45,7.79-2.57.09-3.01-7.59c-.19-.44-.36-1.01-.43-1.36h-.06c.08.45.13.99.15,1.53l.27,7.53-2.51.09-.4-11.35Z"/>
      <path class="cls-3" d="M125.91,164.56l4.16.06,2.35,6.96c.15.51.26.93.3,1.33h.03c.07-.4.19-.81.35-1.34l2.49-6.88,4.24.06-.15,11.35-2.67-.04.1-7.53c0-.5.05-1.05.12-1.55h-.05c-.05.32-.25.96-.43,1.39l-2.82,7.66-2.57-.04-2.63-7.73c-.17-.45-.31-1.03-.37-1.38h-.06c.06.45.08.99.08,1.54l-.1,7.53-2.51-.03.15-11.35Z"/>
      <path class="cls-3" d="M147.97,165.06l3.47.16,4.26,11.56-3.02-.14-.84-2.54-5.06-.23-1.07,2.45-3.02-.14,5.3-11.12ZM151.17,172.1l-1.07-3.22c-.14-.46-.36-1.17-.46-1.77h-.03c-.17.58-.44,1.28-.64,1.71l-1.36,3.11,3.56.16Z"/>
      <path class="cls-3" d="M157.66,174.46l2.23-1.33c.63,1.28,1.89,2.21,3.73,2.34,1.5.11,2.44-.24,2.51-1.13.06-.78-.42-1.12-1.64-1.42l-2.31-.51c-2.29-.55-3.44-1.7-3.29-3.68.16-2.14,2.15-3.31,5.36-3.07,2.38.18,4.24,1.07,5.18,2.69l-1.98,1.43c-.6-1.17-1.85-1.92-3.51-2.04-1.37-.1-2.2.27-2.26,1.02-.05.72.39,1.09,1.68,1.39l2.24.52c2.45.57,3.56,1.59,3.41,3.61-.17,2.3-2.22,3.61-5.67,3.35-2.83-.21-4.85-1.43-5.67-3.18Z"/>
      <path class="cls-3" d="M171.9,166.59l10.66,1.05-.22,2.28-3.88-.38-.89,9.02-2.9-.29.89-9.02-3.88-.38.22-2.28Z"/>
      <path class="cls-3" d="M194.07,178.37l-.26,2.08-9.36-1.16,1.4-11.28,9.24,1.15-.26,2.08-6.37-.79-.3,2.45,6.1.76-.25,2-6.1-.76-.33,2.67,6.48.8Z"/>
      <path class="cls-3" d="M199.19,169.73l6.08.92c3.17.48,4.08,2.24,3.79,4.15-.2,1.33-1.08,2.54-2.82,2.83l2,4.96-3.18-.48-1.76-4.54-2.31-.35-.63,4.18-2.86-.43,1.7-11.23ZM203.87,175.71c1.39.21,2.04-.42,2.18-1.34.13-.89-.29-1.63-1.7-1.84l-2.59-.39-.48,3.18,2.6.39Z"/>
    </g>
    <g>
      <path class="cls-2" d="M69.5,119.15c0-10.12,7.11-16.96,18.04-16.96,9.09,0,15.21,4.5,16.6,11.7l-8.37,1.48c-.81-4.32-3.73-6.75-8.37-6.75-5.85,0-9.4,4-9.4,10.44s3.6,10.39,9.54,10.39c4.5,0,7.42-2.34,8.37-6.52l8.28,1.8c-1.98,6.97-7.87,11.21-16.83,11.21-11.25,0-17.86-6.62-17.86-16.79Z"/>
      <path class="cls-2" d="M105.1,128.2l5.98-4.18c2.02,3.46,5.76,5.8,10.93,5.8,4.23,0,6.79-1.17,6.79-3.69,0-2.21-1.39-3.06-4.91-3.65l-6.57-.94c-6.52-1.08-9.99-4.05-9.99-9.63,0-6.03,5.35-9.72,14.4-9.72,6.7,0,12.1,2.11,15.07,6.48l-5.26,4.41c-1.94-3.15-5.58-5-10.26-5-3.87,0-6.12,1.22-6.12,3.33s1.3,2.97,4.99,3.55l6.39.99c6.98,1.08,10.31,3.73,10.31,9.4,0,6.48-5.49,10.58-15.21,10.58-7.96,0-13.9-3.02-16.56-7.74Z"/>
      <path class="cls-2" d="M141.05,103.09h11.7l6.88,19.48c.45,1.44.76,2.61.9,3.74h.09c.18-1.12.5-2.29.95-3.78l6.75-19.44h11.92v31.95h-7.51v-21.19c0-1.39.09-2.97.27-4.36h-.13c-.14.9-.68,2.7-1.17,3.92l-7.65,21.64h-7.24l-7.7-21.64c-.49-1.26-.9-2.88-1.08-3.87h-.18c.18,1.26.27,2.79.27,4.32v21.19h-7.07v-31.95Z"/>
    </g>
    <g>
      <path class="cls-2" d="M130.53,69.33c-.49,0-.88.39-.88.88s.39.88.88.88.88-.39.88-.88-.39-.88-.88-.88ZM104.05,66.8c3.03,0,5.64-1.86,5.64-4.74,0-4.71-6.73-3.31-6.73-6.68,0-1.76,1.73-2.92,3.73-2.92,1.19,0,2.85.34,2.64,1.5l-.21,1.11h1.45l.31-1.5c.34-1.73-2.2-2.48-3.93-2.48-2.9,0-5.54,1.6-5.54,4.35,0,4.53,6.76,3.05,6.76,6.73,0,1.97-1.73,3.21-3.88,3.21-1.6,0-3.36-.52-3.08-1.94l.23-1.24h-1.45c-.13.54-.21.85-.26,1.42-.49,2.43,2.43,3.18,4.32,3.18h0ZM117.56,55.43c-3.36,0-6.5,2.9-6.5,6.65,0,2.87,1.84,4.74,4.81,4.74,2.77,0,4.22-1.48,4.22-1.48l-.47-1.22s-1.32,1.37-3.62,1.37-3.44-1.4-3.44-3.52c0-2.95,2.41-5.2,4.87-5.2,1.04,0,2.61.39,2.43,1.42l-.1.54h1.35l.18-.88c.36-1.86-2.25-2.43-3.73-2.43h0ZM129.29,57.09l.28-1.45c-.18-.05-.39-.08-.6-.08-1.81,0-3.26,1.45-4.01,2.98h-.05c.18-.49.44-1.71.44-1.99,0-.6-.28-.88-1.09-.88h-1.5l-.26,1.27h.91c.36,0,.44.21.39.47l-1.76,9.14h1.48l.8-4.14c.47-2.51,2.12-5.36,4.45-5.36.21,0,.36.03.52.05h0ZM131.49,57.27c0,.08-.05.28-.08.39l-.96,4.89c-.08.47-.13.96-.13,1.37,0,1.76.91,2.9,3.03,2.9,2.46,0,4.09-1.79,4.68-2.77h.05c-.13.52-.31,1.19-.31,1.63,0,.6.31.91,1.09.91h1.48l.23-1.27h-.88c-.26,0-.41-.13-.41-.34,0-.1.03-.34.08-.47l1.71-8.75h-1.42l-.96,4.92c-.44,2.23-2.46,4.74-4.89,4.74-1.48,0-1.89-.83-1.89-1.89,0-.41.05-.85.16-1.29l.96-5.07c.05-.18.08-.39.08-.52,0-.62-.34-.96-1.11-.96h-1.5l-.26,1.27h.91c.23,0,.36.1.36.31h0ZM142.23,66.54h1.48l.98-5.1c.41-2.2,2.33-4.63,4.68-4.63,1.29,0,1.71.8,1.71,1.89,0,.41-.05.85-.16,1.32l-1.27,6.55h1.48l.98-5.12c.44-2.17,2.41-4.61,4.68-4.61,1.32,0,1.73.8,1.73,1.89,0,.41-.08.85-.16,1.32l-.98,5.05c-.05.18-.08.36-.08.49,0,.65.34.96,1.11.96h1.5l.23-1.27h-.91c-.26,0-.39-.1-.39-.34,0-.08.05-.26.08-.36l.96-4.94c.08-.49.16-.96.16-1.37,0-1.73-.83-2.85-2.85-2.85-2.3,0-3.96,1.73-4.56,2.74h-.05c-.05-1.71-.88-2.74-2.8-2.74-2.33,0-3.93,1.79-4.5,2.74h-.05c.13-.47.28-1.16.28-1.55,0-.6-.34-.93-1.11-.93h-1.48l-.23,1.27h.85c.28,0,.41.13.41.34,0,.1-.03.34-.08.49l-1.68,8.77h0ZM115.05,83.15h.39l-.26,1.35h-.91c-.85,0-1.06-.21-1.24-1.24l-.62-3.57h-6l-2.02,3.57c-.57,1.04-.85,1.24-1.76,1.24h-1.04l.26-1.35h.39c.34,0,.52-.08.72-.47l7.56-13.36h1.6l2.38,13.41c.08.36.21.41.54.41h0ZM112.23,78.34l-.96-5.41c-.1-.7-.18-1.97-.18-1.97h-.05s-.57,1.24-.96,1.97l-3.03,5.41h5.18ZM119.79,69.33h-1.48l-.26,1.27h.91c.26,0,.39.1.39.34,0,.16-.03.26-.08.47l-2.25,11.65c-.05.18-.08.36-.08.49,0,.65.36.96,1.11.96h1.5l.23-1.27h-.85c-.26,0-.41-.1-.41-.34,0-.08.05-.26.08-.36l2.25-11.67c.05-.23.08-.44.08-.62,0-.62-.36-.91-1.14-.91h0ZM125.07,69.33h-1.48l-.26,1.27h.91c.26,0,.39.1.39.34,0,.16-.03.26-.08.47l-2.25,11.65c-.05.18-.08.36-.08.49,0,.65.36.96,1.11.96h1.5l.23-1.27h-.91c-.26,0-.41-.1-.41-.34,0-.08.05-.26.08-.36l2.25-11.67c.05-.23.08-.44.08-.62.05-.62-.34-.91-1.09-.91h0ZM129.49,73.65h-1.48l-.26,1.27h.91c.26,0,.39.1.39.34,0,.16-.03.26-.08.47l-1.42,7.25c-.05.28-.08.44-.08.6,0,.65.36.96,1.11.96h1.5l.23-1.27h-.91c-.26,0-.41-.1-.41-.34,0-.08.05-.26.08-.36l1.42-7.32c.05-.23.08-.47.08-.67.05-.62-.31-.91-1.09-.91h0ZM140.57,83.23h.91l-.23,1.27h-1.37c-.83,0-1.16-.34-1.16-.85,0-.28.13-.96.26-1.35h-.05s-1.32,2.46-4.06,2.46c-1.63,0-3.16-.85-3.16-2.82,0-3.29,4.01-4.12,7.32-4.12h.7l.05-.28c.08-.39.1-.67.1-1.04,0-1.27-.72-1.89-2.23-1.89-.72,0-2.25.18-2.41.96l-.1.7h-1.45l.18-1.04c.28-1.4,2.46-1.84,3.93-1.84,2.43,0,3.49,1.22,3.49,3,0,.41-.05.85-.13,1.32l-.93,4.71c-.03.16-.08.39-.08.49.03.16.13.31.41.31h0ZM139.46,78.99h-.6c-1.84,0-5.67.26-5.67,2.74,0,1.16.8,1.84,1.97,1.84,2.25,0,3.91-2.54,4.22-4.09l.08-.49ZM152.69,82.89c0-.08.03-.26.05-.36l.96-4.89c.08-.47.16-.96.16-1.35,0-1.79-.93-2.92-3.05-2.92-2.51,0-4.17,1.79-4.76,2.77h-.05c.13-.52.31-1.19.31-1.63,0-.57-.34-.91-1.11-.91h-1.48l-.23,1.27h.85c.28,0,.41.13.41.34,0,.1-.03.34-.08.49l-1.68,8.75h1.48l.98-5.15c.44-2.17,2.48-4.58,4.94-4.58,1.5,0,1.94.85,1.94,1.92,0,.41-.08.85-.16,1.27l-.98,5.1c-.03.18-.05.36-.05.49,0,.65.34.96,1.11.96h1.5l.23-1.27h-.91c-.28.05-.41-.08-.39-.28h0ZM161.62,73.4c-3.36,0-6.5,2.9-6.5,6.65,0,2.87,1.84,4.74,4.81,4.74,2.77,0,4.22-1.48,4.22-1.48l-.47-1.22s-1.32,1.37-3.62,1.37-3.44-1.4-3.44-3.52c0-2.95,2.41-5.2,4.87-5.2,1.04,0,2.61.39,2.43,1.42l-.1.54h1.35l.18-.88c.36-1.86-2.25-2.43-3.73-2.43h0ZM176.06,77.3c0,.85-.31,1.81-.31,1.81h-8.28s-.1.44-.1.96c0,1.89,1.19,3.36,3.47,3.36,1.97,0,3.52-1.32,3.52-1.32l.47,1.22s-1.79,1.42-4.09,1.42c-2.95,0-4.89-1.84-4.89-4.58,0-3.55,2.67-6.81,6.34-6.81,2.64.03,3.88,1.68,3.88,3.93ZM174.53,77.2c0-1.76-1.04-2.59-2.46-2.59-1.79,0-3.57,1.19-4.35,3.34h6.73s.08-.36.08-.75ZM180.54,71.69l.41.78h-.44l-.39-.83h-.36v.83h-.41v-2.12h.83c.41,0,.67.26.67.65,0,.34-.21.52-.39.57h0s.03.05.08.13h0ZM180.46,71.01c0-.21-.13-.34-.34-.34h-.36v.7h.34c.21,0,.36-.16.36-.36ZM182.09,71.43c0,1.14-.91,2.04-2.04,2.04s-2.02-.91-2.02-2.04.91-2.04,2.02-2.04,2.04.91,2.04,2.04ZM181.67,71.43c0-.93-.7-1.66-1.63-1.66s-1.6.72-1.6,1.66.7,1.66,1.6,1.66,1.63-.72,1.63-1.66Z"/>
      <path class="cls-2" d="M85.44,67.68c.98,0,1.81-.8,1.81-1.81s-.8-1.81-1.81-1.81-1.81.8-1.81,1.81c0,1.01.83,1.81,1.81,1.81Z"/>
      <path class="cls-2" d="M88.42,65.04c0-.91.75-1.66,1.66-1.66s1.66.75,1.66,1.66-.75,1.66-1.66,1.66-1.66-.75-1.66-1.66Z"/>
      <path class="cls-2" d="M94.5,64.8c.83,0,1.53.67,1.53,1.53s-.67,1.53-1.53,1.53-1.53-.67-1.53-1.53.7-1.53,1.53-1.53Z"/>
      <path class="cls-2" d="M77.96,73.53c0-1.11.91-2.04,2.04-2.04s2.04.91,2.04,2.04-.91,2.04-2.04,2.04c-1.14-.03-2.04-.93-2.04-2.04Z"/>
      <path class="cls-2" d="M79.88,68.84c0-1.06.85-1.94,1.94-1.94s1.94.85,1.94,1.94-.85,1.94-1.94,1.94-1.94-.88-1.94-1.94Z"/>
      <path class="cls-2" d="M99.11,69.57c0,.72-.6,1.32-1.32,1.32s-1.32-.6-1.32-1.32.6-1.32,1.32-1.32,1.32.6,1.32,1.32Z"/>
      <path class="cls-2" d="M97.94,73.68c0-.67.54-1.24,1.24-1.24s1.24.54,1.24,1.24-.54,1.24-1.24,1.24c-.7-.03-1.24-.57-1.24-1.24Z"/>
      <path class="cls-2" d="M97.56,77.85c0-.57.47-1.04,1.04-1.04s1.04.47,1.04,1.04-.47,1.04-1.04,1.04-1.04-.47-1.04-1.04Z"/>
      <path class="cls-2" d="M95.56,81.57c0-.49.41-.91.91-.91s.91.41.91.91-.41.91-.91.91c-.52,0-.91-.41-.91-.91Z"/>
      <path class="cls-2" d="M92.25,83.67c0-.47.39-.85.85-.85s.85.39.85.85-.39.85-.85.85-.85-.39-.85-.85Z"/>
      <path class="cls-2" d="M86.14,52.38c.08.62-.34,1.19-.96,1.29-.62.1-1.19-.34-1.29-.96-.1-.62.34-1.19.96-1.29.65-.1,1.22.34,1.29.96Z"/>
      <path class="cls-2" d="M83.03,52.28c.08.57-.31,1.11-.88,1.19-.57.08-1.11-.31-1.19-.88-.08-.57.31-1.11.88-1.19.57-.08,1.11.31,1.19.88Z"/>
      <path class="cls-2" d="M80.19,53.57c.08.52-.28,1.01-.8,1.09h0c-.52.08-1.01-.28-1.09-.8-.08-.52.28-1.01.8-1.09.54-.08,1.01.28,1.09.8Z"/>
      <path class="cls-2" d="M90.46,56.7c.1.7-.39,1.35-1.09,1.45-.7.1-1.35-.39-1.45-1.09-.1-.7.39-1.35,1.09-1.45.7-.1,1.35.39,1.45,1.09Z"/>
      <path class="cls-2" d="M87.44,52.87c.67-.1,1.29.36,1.37,1.04.1.67-.36,1.29-1.04,1.37-.67.1-1.29-.36-1.37-1.04-.08-.65.36-1.27,1.04-1.37Z"/>
      <path class="cls-2" d="M78.38,55.9c.08.47-.26.91-.72.96h0c-.47.08-.91-.26-.96-.72-.08-.47.26-.91.72-.96.44-.05.88.26.96.72Z"/>
      <path class="cls-2" d="M76.9,58c.44-.05.83.23.91.67h0c.05.44-.23.83-.67.91-.44.05-.83-.26-.91-.7-.05-.41.26-.83.67-.88Z"/>
      <path class="cls-2" d="M77.68,60.71c.36-.05.7.21.75.57h0c.05.36-.21.7-.57.75-.36.05-.7-.21-.75-.57s.21-.7.57-.75Z"/>
      <path class="cls-2" d="M78.89,63.64c-.05-.31.18-.62.49-.65h0c.31-.05.62.18.65.49.05.31-.18.62-.49.65s-.6-.18-.65-.49Z"/>
      <path class="cls-2" d="M81.25,64.65c-.05-.31.16-.57.47-.62.31-.05.57.16.62.47.05.31-.16.57-.47.62-.28.03-.57-.18-.62-.47Z"/>
    </g>
    <path class="cls-1" d="M116.01,208.58c5.26-1.09,9.33-5.11,10.13-10.13.8,5.02,4.87,9.04,10.13,10.13-5.26,1.09-9.33,5.11-10.13,10.13-.8-5.02-4.87-9.04-10.13-10.13Z"/>
  </g>
</svg>